<?xml version="1.0" standalone="no"?>
<!DOCTYPE svg PUBLIC "-//W3C//DTD SVG 20010904//EN"
 "http://www.w3.org/TR/2001/REC-SVG-20010904/DTD/svg10.dtd">
<svg version="1.0" xmlns="http://www.w3.org/2000/svg"
 width="900.000000pt" height="500.000000pt" viewBox="0 0 900.000000 500.000000"
 preserveAspectRatio="xMidYMid meet">

<g transform="translate(0.000000,500.000000) scale(0.100000,-0.100000)"
fill="#000000" stroke="none">
<path d="M7957 3056 c-51 -53 -82 -62 -232 -70 -130 -8 -336 -33 -369 -46 -23
-8 -42 -28 -34 -35 2 -2 44 2 93 10 84 12 144 18 305 30 164 13 198 18 236 35
46 20 99 82 90 105 -10 27 -44 16 -89 -29z"/>
<path d="M7460 2869 c-100 -11 -237 -38 -277 -55 -34 -14 -48 -50 -15 -40 74
22 358 63 368 54 2 -3 -35 -20 -83 -38 -128 -48 -293 -132 -393 -201 -110 -75
-140 -103 -140 -129 0 -26 5 -25 49 9 118 93 391 241 556 301 72 26 70 24 -75
-75 -151 -102 -236 -173 -341 -282 -121 -126 -234 -298 -227 -345 6 -41 26
-28 62 38 117 211 280 372 620 609 121 85 153 118 135 146 -10 17 -123 20
-239 8z"/>
<path d="M190 2710 l0 -40 85 0 85 0 0 -260 0 -260 50 0 50 0 0 260 0 260 85
0 85 0 0 40 0 40 -220 0 -220 0 0 -40z"/>
<path d="M3310 2451 l0 -301 45 0 45 0 0 94 0 93 64 6 c34 3 82 13 104 23 152
60 161 284 15 355 -38 19 -69 24 -160 27 l-113 5 0 -302z m216 203 c41 -20 64
-59 64 -109 0 -80 -53 -125 -145 -125 l-45 0 0 125 0 125 46 0 c25 0 61 -7 80
-16z"/>
<path d="M2408 2697 c-38 -10 -38 -11 -38 -64 l0 -53 -35 0 c-33 0 -35 -2 -35
-35 0 -33 2 -35 34 -35 l35 0 3 -155 c3 -152 3 -155 29 -181 35 -35 103 -43
164 -20 l44 17 -16 34 c-14 29 -19 32 -35 24 -10 -6 -33 -9 -51 -7 l-32 3 -3
143 -3 142 61 0 60 0 0 35 0 35 -60 0 -60 0 0 65 c0 71 1 70 -62 52z"/>
<path d="M679 2567 c-121 -64 -146 -258 -45 -362 82 -85 214 -86 298 -1 68 69
79 217 23 298 -60 85 -182 114 -276 65z m151 -62 c53 -28 81 -116 61 -192 -25
-90 -124 -124 -182 -62 -65 70 -47 216 32 256 32 17 54 16 89 -2z"/>
<path d="M1206 2565 c-44 -30 -46 -30 -46 -5 0 17 -7 20 -45 20 l-45 0 0 -215
0 -215 50 0 50 0 0 158 0 157 34 23 c24 17 46 23 71 20 33 -2 38 0 51 31 8 18
11 37 8 42 -12 19 -91 9 -128 -16z"/>
<path d="M1475 2572 c-79 -38 -116 -105 -116 -209 0 -112 53 -188 151 -214 62
-16 129 -5 179 31 121 88 117 296 -7 381 -48 32 -150 38 -207 11z m158 -79
c60 -54 64 -182 7 -243 -22 -24 -36 -30 -69 -30 -55 0 -86 22 -107 76 -31 81
-5 179 57 212 30 16 85 9 112 -15z"/>
<path d="M2030 2583 c-8 -3 -27 -14 -42 -24 -34 -24 -48 -24 -48 1 0 17 -7 20
-40 20 l-40 0 0 -215 0 -215 45 0 45 0 0 154 0 155 29 20 c59 42 129 40 149
-4 8 -16 12 -82 12 -175 l0 -150 45 0 45 0 0 170 c0 191 -9 228 -59 254 -29
15 -110 20 -141 9z"/>
<path d="M2740 2567 c-117 -62 -146 -244 -57 -352 80 -98 229 -99 314 -2 85
97 65 276 -38 344 -60 40 -156 44 -219 10z m150 -62 c52 -27 76 -105 58 -187
-24 -116 -164 -135 -208 -28 -7 18 -11 56 -8 95 3 51 9 70 28 91 42 45 82 54
130 29z"/>
<path d="M3831 2569 c-49 -29 -69 -57 -87 -118 -22 -73 -14 -157 20 -215 49
-84 168 -118 279 -80 51 17 53 20 35 59 -9 19 -16 24 -32 19 -89 -29 -147 -21
-188 26 -16 17 -28 41 -28 55 l0 24 138 3 137 3 -3 50 c-4 51 -31 125 -55 149
-49 49 -156 62 -216 25z m130 -59 c21 -12 49 -60 49 -85 0 -12 -16 -15 -94
-15 l-95 0 10 33 c17 61 79 94 130 67z"/>
<path d="M4280 2583 c-82 -30 -82 -30 -65 -62 l15 -30 41 14 c88 32 153 11
165 -51 l6 -31 -82 -6 c-131 -10 -185 -52 -185 -143 0 -110 140 -172 235 -104
l29 21 11 -21 c8 -15 21 -20 48 -20 l37 0 -5 177 c-6 198 -11 217 -75 247 -32
16 -142 21 -175 9z m150 -278 c0 -50 -2 -56 -30 -70 -66 -34 -130 -9 -130 50
0 40 19 57 73 66 89 14 87 15 87 -46z"/>
<path d="M4768 2565 c-45 -30 -48 -31 -48 -5 0 17 -7 20 -40 20 l-40 0 0 -215
0 -215 45 0 45 0 0 153 c0 151 0 154 25 177 19 18 39 25 73 26 41 2 48 5 59
30 20 49 17 54 -35 54 -34 0 -58 -7 -84 -25z"/>
<path d="M5035 2583 c-55 -16 -95 -67 -95 -122 0 -45 44 -87 124 -120 77 -31
92 -46 82 -84 -10 -41 -67 -54 -141 -33 -31 10 -58 16 -59 14 -18 -29 -23 -58
-13 -66 42 -34 171 -41 234 -13 52 24 75 58 75 115 1 58 -20 89 -79 115 -133
60 -150 76 -118 112 17 18 27 20 70 15 28 -3 59 -8 71 -11 17 -5 22 0 31 29 8
26 8 38 0 43 -14 8 -156 14 -182 6z"/>
<path d="M5420 2568 c-69 -35 -103 -93 -108 -179 -7 -113 34 -190 122 -230
121 -55 260 18 288 151 32 155 -59 280 -203 280 -37 0 -69 -7 -99 -22z m162
-75 c33 -29 48 -69 48 -123 0 -95 -41 -150 -111 -150 -98 0 -149 133 -94 241
30 57 111 74 157 32z"/>
<path d="M5965 2573 c-16 -8 -38 -22 -47 -30 -15 -14 -18 -13 -24 11 -5 22
-11 26 -45 26 l-39 0 0 -215 0 -215 45 0 45 0 0 154 0 155 32 23 c23 16 47 22
82 23 71 0 76 -13 76 -202 l0 -153 51 0 51 0 -4 173 c-4 184 -12 218 -60 251
-29 21 -124 20 -163 -1z"/>
</g>
</svg>
