<?xml version="1.0" standalone="no"?>
<!DOCTYPE svg PUBLIC "-//W3C//DTD SVG 20010904//EN"
 "http://www.w3.org/TR/2001/REC-SVG-20010904/DTD/svg10.dtd">
<svg version="1.0" xmlns="http://www.w3.org/2000/svg"
 width="187.000000pt" height="187.000000pt" viewBox="0 0 187.000000 187.000000"
 preserveAspectRatio="xMidYMid meet">
<metadata>
Created by potrace 1.14, written by Peter Selinger 2001-2017
</metadata>
<g transform="translate(0.000000,187.000000) scale(0.100000,-0.100000)"
fill="#000000" stroke="none">
<path d="M0 935 l0 -935 935 0 935 0 0 935 0 935 -935 0 -935 0 0 -935z m465
246 c79 -35 133 -96 156 -173 7 -28 7 -28 -36 -28 -41 0 -44 2 -55 35 -14 43
-68 91 -117 104 -21 6 -68 11 -105 11 l-68 0 0 -75 0 -75 -40 0 -40 0 0 116 0
116 128 -4 c104 -3 136 -8 177 -27z m595 -11 l0 -40 -155 0 -155 0 0 -75 0
-75 135 0 135 0 0 -40 0 -40 -135 0 -135 0 0 -115 0 -115 -40 0 -40 0 0 115 0
115 40 0 40 0 0 40 0 40 -40 0 -40 0 0 115 0 115 195 0 195 0 0 -40z m152 -75
l35 -115 -42 0 -42 0 -32 99 c-40 128 -40 131 7 131 l38 0 36 -115z m279 22
c45 -147 45 -137 0 -137 -34 0 -41 4 -49 28 l-10 27 -11 -27 c-9 -24 -16 -28
-50 -28 l-39 0 30 103 c16 56 31 108 33 115 3 8 17 12 37 10 31 -3 33 -6 59
-91z m279 86 c0 -5 -15 -55 -33 -113 l-33 -105 -42 -3 c-23 -2 -42 -1 -42 1 0
5 57 192 65 215 5 13 85 18 85 5z m-1530 -378 l0 -75 68 0 c37 0 84 5 105 11
49 13 103 61 119 105 11 31 16 34 50 34 45 0 48 -13 19 -75 -24 -52 -74 -99
-136 -126 -41 -19 -73 -24 -177 -27 l-128 -4 0 116 0 116 40 0 40 0 0 -75z
m1036 50 c3 -14 10 -25 14 -25 4 0 11 11 14 25 5 21 12 25 46 25 27 0 38 -4
35 -12 -2 -7 -18 -59 -35 -116 -31 -103 -31 -103 -61 -100 -29 3 -32 8 -59 90
-47 147 -47 138 0 138 34 0 41 -4 46 -25z m287 -7 l14 -33 7 33 c7 30 10 32
51 32 l43 0 -34 -105 c-18 -58 -36 -110 -39 -115 -3 -6 -19 -10 -34 -10 -26 0
-29 5 -59 104 -18 57 -32 109 -32 115 0 6 16 11 35 11 30 0 37 -5 48 -32z"/>
</g>
</svg>
